<?xml version="1.0" encoding="UTF-8" standalone="no"?>
<!DOCTYPE svg PUBLIC "-//W3C//DTD SVG 1.1//EN"
 "http://www.w3.org/Graphics/SVG/1.1/DTD/svg11.dtd">
<!-- Generated by graphviz version 2.40.1 (20161225.0304)
 -->
<!-- Title: %3 Pages: 1 -->
<svg width="1740pt" height="692pt"
 viewBox="0.00 0.00 1740.45 692.00" xmlns="http://www.w3.org/2000/svg" xmlns:xlink="http://www.w3.org/1999/xlink">
<g id="graph0" class="graph" transform="scale(1 1) rotate(0) translate(4 688)">
<title>%3</title>
<polygon fill="#ffffff" stroke="transparent" points="-4,4 -4,-688 1736.4471,-688 1736.4471,4 -4,4"/>
<!-- [root] aws_instance.kali_machine -->
<g id="node1" class="node">
<title>[root] aws_instance.kali_machine</title>
<polygon fill="none" stroke="#000000" points="945.3291,-468 776.2166,-468 776.2166,-432 945.3291,-432 945.3291,-468"/>
<text text-anchor="middle" x="860.7728" y="-445.8" font-family="Times,serif" font-size="14.00" fill="#000000">aws_instance.kali_machine</text>
</g>
<!-- [root] aws_security_group.sg&#45;ipv4&#45;only -->
<g id="node7" class="node">
<title>[root] aws_security_group.sg&#45;ipv4&#45;only</title>
<polygon fill="none" stroke="#000000" points="1372.5766,-396 1168.969,-396 1168.969,-360 1372.5766,-360 1372.5766,-396"/>
<text text-anchor="middle" x="1270.7728" y="-373.8" font-family="Times,serif" font-size="14.00" fill="#000000">aws_security_group.sg&#45;ipv4&#45;only</text>
</g>
<!-- [root] aws_instance.kali_machine&#45;&gt;[root] aws_security_group.sg&#45;ipv4&#45;only -->
<g id="edge1" class="edge">
<title>[root] aws_instance.kali_machine&#45;&gt;[root] aws_security_group.sg&#45;ipv4&#45;only</title>
<path fill="none" stroke="#000000" d="M945.7251,-435.0816C1007.4125,-424.2486 1091.492,-409.4835 1158.6827,-397.6841"/>
<polygon fill="#000000" stroke="#000000" points="1159.6476,-401.0683 1168.8915,-395.8913 1158.4368,-394.1738 1159.6476,-401.0683"/>
</g>
<!-- [root] aws_security_group.sg&#45;ipv6 -->
<g id="node8" class="node">
<title>[root] aws_security_group.sg&#45;ipv6</title>
<polygon fill="none" stroke="#000000" points="1113.0249,-324 938.5207,-324 938.5207,-288 1113.0249,-288 1113.0249,-324"/>
<text text-anchor="middle" x="1025.7728" y="-301.8" font-family="Times,serif" font-size="14.00" fill="#000000">aws_security_group.sg&#45;ipv6</text>
</g>
<!-- [root] aws_instance.kali_machine&#45;&gt;[root] aws_security_group.sg&#45;ipv6 -->
<g id="edge2" class="edge">
<title>[root] aws_instance.kali_machine&#45;&gt;[root] aws_security_group.sg&#45;ipv6</title>
<path fill="none" stroke="#000000" d="M945.4254,-440.3729C1000.9893,-432.1106 1066.4699,-417.9929 1083.7728,-396 1100.2538,-375.0518 1080.0755,-349.3345 1059.1345,-330.7629"/>
<polygon fill="#000000" stroke="#000000" points="1061.3473,-328.0504 1051.4514,-324.266 1056.8275,-333.3956 1061.3473,-328.0504"/>
</g>
<!-- [root] data.aws_subnet.subnet -->
<g id="node13" class="node">
<title>[root] data.aws_subnet.subnet</title>
<polygon fill="none" stroke="#000000" points="429.9663,-396 281.5793,-396 281.5793,-360 429.9663,-360 429.9663,-396"/>
<text text-anchor="middle" x="355.7728" y="-373.8" font-family="Times,serif" font-size="14.00" fill="#000000">data.aws_subnet.subnet</text>
</g>
<!-- [root] aws_instance.kali_machine&#45;&gt;[root] data.aws_subnet.subnet -->
<g id="edge3" class="edge">
<title>[root] aws_instance.kali_machine&#45;&gt;[root] data.aws_subnet.subnet</title>
<path fill="none" stroke="#000000" d="M775.9828,-441.3259C692.7949,-432.3189 562.1669,-416.8531 439.8414,-396.1094"/>
<polygon fill="#000000" stroke="#000000" points="440.3696,-392.649 429.9226,-394.4125 439.1892,-399.5487 440.3696,-392.649"/>
</g>
<!-- [root] local.kali&#45;userdata -->
<g id="node16" class="node">
<title>[root] local.kali&#45;userdata</title>
<ellipse fill="none" stroke="#000000" cx="545.7728" cy="-378" rx="97.5362" ry="18"/>
<text text-anchor="middle" x="545.7728" y="-373.8" font-family="Times,serif" font-size="14.00" fill="#000000">[root] local.kali&#45;userdata</text>
</g>
<!-- [root] aws_instance.kali_machine&#45;&gt;[root] local.kali&#45;userdata -->
<g id="edge4" class="edge">
<title>[root] aws_instance.kali_machine&#45;&gt;[root] local.kali&#45;userdata</title>
<path fill="none" stroke="#000000" d="M781.6916,-431.9243C731.1389,-420.3694 666.1154,-405.5069 617.1393,-394.3123"/>
<polygon fill="#000000" stroke="#000000" points="617.7839,-390.8695 607.2554,-392.0532 616.2241,-397.6935 617.7839,-390.8695"/>
</g>
<!-- [root] local.key_pair_name -->
<g id="node17" class="node">
<title>[root] local.key_pair_name</title>
<ellipse fill="none" stroke="#000000" cx="119.7728" cy="-378" rx="106.2233" ry="18"/>
<text text-anchor="middle" x="119.7728" y="-373.8" font-family="Times,serif" font-size="14.00" fill="#000000">[root] local.key_pair_name</text>
</g>
<!-- [root] aws_instance.kali_machine&#45;&gt;[root] local.key_pair_name -->
<g id="edge5" class="edge">
<title>[root] aws_instance.kali_machine&#45;&gt;[root] local.key_pair_name</title>
<path fill="none" stroke="#000000" d="M775.9916,-442.898C661.6491,-433.1634 451.7045,-414.7386 272.7728,-396 254.5091,-394.0873 235.0363,-391.9058 216.3169,-389.7373"/>
<polygon fill="#000000" stroke="#000000" points="216.6463,-386.2521 206.3083,-388.571 215.836,-393.205 216.6463,-386.2521"/>
</g>
<!-- [root] var.ec2_instance_type -->
<g id="node18" class="node">
<title>[root] var.ec2_instance_type</title>
<ellipse fill="none" stroke="#000000" cx="771.7728" cy="-378" rx="110.5756" ry="18"/>
<text text-anchor="middle" x="771.7728" y="-373.8" font-family="Times,serif" font-size="14.00" fill="#000000">[root] var.ec2_instance_type</text>
</g>
<!-- [root] aws_instance.kali_machine&#45;&gt;[root] var.ec2_instance_type -->
<g id="edge6" class="edge">
<title>[root] aws_instance.kali_machine&#45;&gt;[root] var.ec2_instance_type</title>
<path fill="none" stroke="#000000" d="M838.3144,-431.8314C827.185,-422.8278 813.5948,-411.8335 801.6043,-402.1334"/>
<polygon fill="#000000" stroke="#000000" points="803.5846,-399.2335 793.6088,-395.665 799.1819,-404.6756 803.5846,-399.2335"/>
</g>
<!-- [root] var.packer_ami -->
<g id="node19" class="node">
<title>[root] var.packer_ami</title>
<ellipse fill="none" stroke="#000000" cx="987.7728" cy="-378" rx="86.9376" ry="18"/>
<text text-anchor="middle" x="987.7728" y="-373.8" font-family="Times,serif" font-size="14.00" fill="#000000">[root] var.packer_ami</text>
</g>
<!-- [root] aws_instance.kali_machine&#45;&gt;[root] var.packer_ami -->
<g id="edge7" class="edge">
<title>[root] aws_instance.kali_machine&#45;&gt;[root] var.packer_ami</title>
<path fill="none" stroke="#000000" d="M892.8203,-431.8314C909.8405,-422.1821 930.894,-410.2463 948.8481,-400.0675"/>
<polygon fill="#000000" stroke="#000000" points="950.9436,-402.9029 957.9167,-394.9263 947.4913,-396.8135 950.9436,-402.9029"/>
</g>
<!-- [root] aws_internet_gateway.igw -->
<g id="node2" class="node">
<title>[root] aws_internet_gateway.igw</title>
<polygon fill="none" stroke="#000000" points="1134.0367,-540 969.509,-540 969.509,-504 1134.0367,-504 1134.0367,-540"/>
<text text-anchor="middle" x="1051.7728" y="-517.8" font-family="Times,serif" font-size="14.00" fill="#000000">aws_internet_gateway.igw</text>
</g>
<!-- [root] data.aws_vpc.vpc -->
<g id="node14" class="node">
<title>[root] data.aws_vpc.vpc</title>
<polygon fill="none" stroke="#000000" points="1140.2914,-252 1025.2542,-252 1025.2542,-216 1140.2914,-216 1140.2914,-252"/>
<text text-anchor="middle" x="1082.7728" y="-229.8" font-family="Times,serif" font-size="14.00" fill="#000000">data.aws_vpc.vpc</text>
</g>
<!-- [root] aws_internet_gateway.igw&#45;&gt;[root] data.aws_vpc.vpc -->
<g id="edge8" class="edge">
<title>[root] aws_internet_gateway.igw&#45;&gt;[root] data.aws_vpc.vpc</title>
<path fill="none" stroke="#000000" d="M1060.9841,-503.7894C1077.627,-469.6252 1111.8986,-393.1191 1121.7728,-324 1124.0356,-308.1608 1126.6955,-303.2239 1121.7728,-288 1118.604,-278.2001 1112.9197,-268.6831 1106.8537,-260.4383"/>
<polygon fill="#000000" stroke="#000000" points="1109.4199,-258.0398 1100.4836,-252.3483 1103.9202,-262.3703 1109.4199,-258.0398"/>
</g>
<!-- [root] aws_key_pair.ssh_key_pair -->
<g id="node3" class="node">
<title>[root] aws_key_pair.ssh_key_pair</title>
<polygon fill="none" stroke="#000000" points="205.1355,-324 34.4101,-324 34.4101,-288 205.1355,-288 205.1355,-324"/>
<text text-anchor="middle" x="119.7728" y="-301.8" font-family="Times,serif" font-size="14.00" fill="#000000">aws_key_pair.ssh_key_pair</text>
</g>
<!-- [root] provider.aws -->
<g id="node15" class="node">
<title>[root] provider.aws</title>
<polygon fill="none" stroke="#000000" points="390.7728,-108 312.1645,-90 390.7728,-72 469.3812,-90 390.7728,-108"/>
<text text-anchor="middle" x="390.7728" y="-85.8" font-family="Times,serif" font-size="14.00" fill="#000000">provider.aws</text>
</g>
<!-- [root] aws_key_pair.ssh_key_pair&#45;&gt;[root] provider.aws -->
<g id="edge9" class="edge">
<title>[root] aws_key_pair.ssh_key_pair&#45;&gt;[root] provider.aws</title>
<path fill="none" stroke="#000000" d="M51.4249,-287.9405C33.8951,-279.8841 17.0929,-268.3697 6.7728,-252 -1.7601,-238.4652 -2.613,-228.9579 6.7728,-216 46.0778,-161.7362 240.4708,-118.3083 336.6651,-99.7513"/>
<polygon fill="#000000" stroke="#000000" points="337.3308,-103.1875 346.4976,-97.8752 336.0188,-96.3116 337.3308,-103.1875"/>
</g>
<!-- [root] var.public_key_path -->
<g id="node20" class="node">
<title>[root] var.public_key_path</title>
<ellipse fill="none" stroke="#000000" cx="119.7728" cy="-234" rx="104.3283" ry="18"/>
<text text-anchor="middle" x="119.7728" y="-229.8" font-family="Times,serif" font-size="14.00" fill="#000000">[root] var.public_key_path</text>
</g>
<!-- [root] aws_key_pair.ssh_key_pair&#45;&gt;[root] var.public_key_path -->
<g id="edge10" class="edge">
<title>[root] aws_key_pair.ssh_key_pair&#45;&gt;[root] var.public_key_path</title>
<path fill="none" stroke="#000000" d="M119.7728,-287.8314C119.7728,-280.131 119.7728,-270.9743 119.7728,-262.4166"/>
<polygon fill="#000000" stroke="#000000" points="123.2729,-262.4132 119.7728,-252.4133 116.2729,-262.4133 123.2729,-262.4132"/>
</g>
<!-- [root] var.ssh_key_pair_name -->
<g id="node21" class="node">
<title>[root] var.ssh_key_pair_name</title>
<ellipse fill="none" stroke="#000000" cx="357.7728" cy="-234" rx="115.9209" ry="18"/>
<text text-anchor="middle" x="357.7728" y="-229.8" font-family="Times,serif" font-size="14.00" fill="#000000">[root] var.ssh_key_pair_name</text>
</g>
<!-- [root] aws_key_pair.ssh_key_pair&#45;&gt;[root] var.ssh_key_pair_name -->
<g id="edge11" class="edge">
<title>[root] aws_key_pair.ssh_key_pair&#45;&gt;[root] var.ssh_key_pair_name</title>
<path fill="none" stroke="#000000" d="M179.5231,-287.9243C214.6387,-277.3011 258.9957,-263.8821 294.676,-253.0881"/>
<polygon fill="#000000" stroke="#000000" points="295.9366,-256.3635 304.4947,-250.1178 293.9096,-249.6634 295.9366,-256.3635"/>
</g>
<!-- [root] aws_route_table.rt&#45;ipv4only -->
<g id="node4" class="node">
<title>[root] aws_route_table.rt&#45;ipv4only</title>
<polygon fill="none" stroke="#000000" points="1565.0113,-396 1390.5344,-396 1390.5344,-360 1565.0113,-360 1565.0113,-396"/>
<text text-anchor="middle" x="1477.7728" y="-373.8" font-family="Times,serif" font-size="14.00" fill="#000000">aws_route_table.rt&#45;ipv4only</text>
</g>
<!-- [root] data.aws_internet_gateway.igw -->
<g id="node11" class="node">
<title>[root] data.aws_internet_gateway.igw</title>
<polygon fill="none" stroke="#000000" points="1602.3543,-324 1411.1913,-324 1411.1913,-288 1602.3543,-288 1602.3543,-324"/>
<text text-anchor="middle" x="1506.7728" y="-301.8" font-family="Times,serif" font-size="14.00" fill="#000000">data.aws_internet_gateway.igw</text>
</g>
<!-- [root] aws_route_table.rt&#45;ipv4only&#45;&gt;[root] data.aws_internet_gateway.igw -->
<g id="edge12" class="edge">
<title>[root] aws_route_table.rt&#45;ipv4only&#45;&gt;[root] data.aws_internet_gateway.igw</title>
<path fill="none" stroke="#000000" d="M1485.0907,-359.8314C1488.2605,-351.9617 1492.0428,-342.5712 1495.5541,-333.8533"/>
<polygon fill="#000000" stroke="#000000" points="1498.8667,-334.9968 1499.3564,-324.4133 1492.3736,-332.3815 1498.8667,-334.9968"/>
</g>
<!-- [root] var.use_ipv4only -->
<g id="node22" class="node">
<title>[root] var.use_ipv4only</title>
<ellipse fill="none" stroke="#000000" cx="1299.7728" cy="-306" rx="93.2533" ry="18"/>
<text text-anchor="middle" x="1299.7728" y="-301.8" font-family="Times,serif" font-size="14.00" fill="#000000">[root] var.use_ipv4only</text>
</g>
<!-- [root] aws_route_table.rt&#45;ipv4only&#45;&gt;[root] var.use_ipv4only -->
<g id="edge13" class="edge">
<title>[root] aws_route_table.rt&#45;ipv4only&#45;&gt;[root] var.use_ipv4only</title>
<path fill="none" stroke="#000000" d="M1432.8559,-359.8314C1407.4479,-349.554 1375.627,-336.6826 1349.4723,-326.1032"/>
<polygon fill="#000000" stroke="#000000" points="1350.6979,-322.8235 1340.1151,-322.3182 1348.073,-329.3127 1350.6979,-322.8235"/>
</g>
<!-- [root] aws_route_table.rt&#45;ipv6 -->
<g id="node5" class="node">
<title>[root] aws_route_table.rt&#45;ipv6</title>
<polygon fill="none" stroke="#000000" points="1732.6219,-396 1582.9238,-396 1582.9238,-360 1732.6219,-360 1732.6219,-396"/>
<text text-anchor="middle" x="1657.7728" y="-373.8" font-family="Times,serif" font-size="14.00" fill="#000000">aws_route_table.rt&#45;ipv6</text>
</g>
<!-- [root] aws_route_table.rt&#45;ipv6&#45;&gt;[root] data.aws_internet_gateway.igw -->
<g id="edge14" class="edge">
<title>[root] aws_route_table.rt&#45;ipv6&#45;&gt;[root] data.aws_internet_gateway.igw</title>
<path fill="none" stroke="#000000" d="M1619.6691,-359.8314C1599.6533,-350.2874 1574.9461,-338.5065 1553.7534,-328.4013"/>
<polygon fill="#000000" stroke="#000000" points="1555.1353,-325.1828 1544.6025,-324.038 1552.1225,-331.5013 1555.1353,-325.1828"/>
</g>
<!-- [root] aws_route_table_association.rtassoc -->
<g id="node6" class="node">
<title>[root] aws_route_table_association.rtassoc</title>
<polygon fill="none" stroke="#000000" points="1371.6012,-540 1151.9444,-540 1151.9444,-504 1371.6012,-504 1371.6012,-540"/>
<text text-anchor="middle" x="1261.7728" y="-517.8" font-family="Times,serif" font-size="14.00" fill="#000000">aws_route_table_association.rtassoc</text>
</g>
<!-- [root] aws_subnet.public&#45;subnet -->
<g id="node9" class="node">
<title>[root] aws_subnet.public&#45;subnet</title>
<polygon fill="none" stroke="#000000" points="436.3041,-324 275.2416,-324 275.2416,-288 436.3041,-288 436.3041,-324"/>
<text text-anchor="middle" x="355.7728" y="-301.8" font-family="Times,serif" font-size="14.00" fill="#000000">aws_subnet.public&#45;subnet</text>
</g>
<!-- [root] aws_route_table_association.rtassoc&#45;&gt;[root] aws_subnet.public&#45;subnet -->
<g id="edge15" class="edge">
<title>[root] aws_route_table_association.rtassoc&#45;&gt;[root] aws_subnet.public&#45;subnet</title>
<path fill="none" stroke="#000000" d="M1151.9027,-505.1574C1148.8278,-504.7579 1145.7797,-504.3711 1142.7728,-504 949.4223,-480.1388 400.2089,-543.3561 272.7728,-396 262.3067,-383.8979 265.1442,-374.0643 272.7728,-360 279.5663,-347.4754 290.661,-337.4004 302.5597,-329.5017"/>
<polygon fill="#000000" stroke="#000000" points="304.6216,-332.343 311.3159,-324.1309 300.9616,-326.376 304.6216,-332.343"/>
</g>
<!-- [root] data.aws_route_table.rt -->
<g id="node12" class="node">
<title>[root] data.aws_route_table.rt</title>
<polygon fill="none" stroke="#000000" points="1550.8876,-468 1404.658,-468 1404.658,-432 1550.8876,-432 1550.8876,-468"/>
<text text-anchor="middle" x="1477.7728" y="-445.8" font-family="Times,serif" font-size="14.00" fill="#000000">data.aws_route_table.rt</text>
</g>
<!-- [root] aws_route_table_association.rtassoc&#45;&gt;[root] data.aws_route_table.rt -->
<g id="edge16" class="edge">
<title>[root] aws_route_table_association.rtassoc&#45;&gt;[root] data.aws_route_table.rt</title>
<path fill="none" stroke="#000000" d="M1315.9999,-503.9243C1345.6568,-494.0387 1382.5765,-481.7321 1413.6549,-471.3726"/>
<polygon fill="#000000" stroke="#000000" points="1415.1434,-474.5659 1423.5234,-468.0831 1412.9297,-467.9251 1415.1434,-474.5659"/>
</g>
<!-- [root] aws_security_group.sg&#45;ipv4&#45;only&#45;&gt;[root] data.aws_vpc.vpc -->
<g id="edge17" class="edge">
<title>[root] aws_security_group.sg&#45;ipv4&#45;only&#45;&gt;[root] data.aws_vpc.vpc</title>
<path fill="none" stroke="#000000" d="M1245.4909,-359.8729C1231.3073,-349.5606 1213.3793,-336.2872 1197.7728,-324 1178.1894,-308.5817 1174.3052,-303.4829 1154.7728,-288 1142.2373,-278.0634 1128.2134,-267.4383 1115.8962,-258.2645"/>
<polygon fill="#000000" stroke="#000000" points="1117.7979,-255.3174 1107.6808,-252.1716 1113.628,-260.9399 1117.7979,-255.3174"/>
</g>
<!-- [root] aws_security_group.sg&#45;ipv4&#45;only&#45;&gt;[root] var.use_ipv4only -->
<g id="edge18" class="edge">
<title>[root] aws_security_group.sg&#45;ipv4&#45;only&#45;&gt;[root] var.use_ipv4only</title>
<path fill="none" stroke="#000000" d="M1278.0907,-359.8314C1281.2605,-351.9617 1285.0428,-342.5712 1288.5541,-333.8533"/>
<polygon fill="#000000" stroke="#000000" points="1291.8667,-334.9968 1292.3564,-324.4133 1285.3736,-332.3815 1291.8667,-334.9968"/>
</g>
<!-- [root] aws_security_group.sg&#45;ipv6&#45;&gt;[root] data.aws_vpc.vpc -->
<g id="edge19" class="edge">
<title>[root] aws_security_group.sg&#45;ipv6&#45;&gt;[root] data.aws_vpc.vpc</title>
<path fill="none" stroke="#000000" d="M1040.1563,-287.8314C1046.7214,-279.5386 1054.6235,-269.557 1061.8306,-260.4533"/>
<polygon fill="#000000" stroke="#000000" points="1064.7327,-262.4262 1068.1956,-252.4133 1059.2444,-258.0813 1064.7327,-262.4262"/>
</g>
<!-- [root] aws_subnet.public&#45;subnet&#45;&gt;[root] data.aws_vpc.vpc -->
<g id="edge20" class="edge">
<title>[root] aws_subnet.public&#45;subnet&#45;&gt;[root] data.aws_vpc.vpc</title>
<path fill="none" stroke="#000000" d="M436.7106,-289.2193C439.4268,-288.7875 442.1199,-288.3793 444.7728,-288 651.1972,-258.4898 897.6722,-243.2326 1014.6631,-237.1856"/>
<polygon fill="#000000" stroke="#000000" points="1015.0889,-240.6685 1024.8974,-236.6631 1014.7319,-233.6776 1015.0889,-240.6685"/>
</g>
<!-- [root] var.subnet_cidr_block -->
<g id="node23" class="node">
<title>[root] var.subnet_cidr_block</title>
<ellipse fill="none" stroke="#000000" cx="602.7728" cy="-234" rx="110.6015" ry="18"/>
<text text-anchor="middle" x="602.7728" y="-229.8" font-family="Times,serif" font-size="14.00" fill="#000000">[root] var.subnet_cidr_block</text>
</g>
<!-- [root] aws_subnet.public&#45;subnet&#45;&gt;[root] var.subnet_cidr_block -->
<g id="edge21" class="edge">
<title>[root] aws_subnet.public&#45;subnet&#45;&gt;[root] var.subnet_cidr_block</title>
<path fill="none" stroke="#000000" d="M417.7825,-287.9243C454.7753,-277.141 501.6503,-263.477 538.9581,-252.6019"/>
<polygon fill="#000000" stroke="#000000" points="540.0958,-255.916 548.7167,-249.7572 538.1368,-249.1957 540.0958,-255.916"/>
</g>
<!-- [root] aws_vpc.new&#45;vpc -->
<g id="node10" class="node">
<title>[root] aws_vpc.new&#45;vpc</title>
<polygon fill="none" stroke="#000000" points="1140.9598,-180 1024.5859,-180 1024.5859,-144 1140.9598,-144 1140.9598,-180"/>
<text text-anchor="middle" x="1082.7728" y="-157.8" font-family="Times,serif" font-size="14.00" fill="#000000">aws_vpc.new&#45;vpc</text>
</g>
<!-- [root] aws_vpc.new&#45;vpc&#45;&gt;[root] provider.aws -->
<g id="edge22" class="edge">
<title>[root] aws_vpc.new&#45;vpc&#45;&gt;[root] provider.aws</title>
<path fill="none" stroke="#000000" d="M1024.4433,-145.6802C1021.5216,-145.0669 1018.6197,-144.5014 1015.7728,-144 821.9182,-109.8602 590.2707,-97.0104 470.8131,-92.4055"/>
<polygon fill="#000000" stroke="#000000" points="470.7822,-88.902 460.6577,-92.0235 470.5191,-95.897 470.7822,-88.902"/>
</g>
<!-- [root] var.create_vpc -->
<g id="node24" class="node">
<title>[root] var.create_vpc</title>
<ellipse fill="none" stroke="#000000" cx="1260.7728" cy="-90" rx="83.5306" ry="18"/>
<text text-anchor="middle" x="1260.7728" y="-85.8" font-family="Times,serif" font-size="14.00" fill="#000000">[root] var.create_vpc</text>
</g>
<!-- [root] aws_vpc.new&#45;vpc&#45;&gt;[root] var.create_vpc -->
<g id="edge23" class="edge">
<title>[root] aws_vpc.new&#45;vpc&#45;&gt;[root] var.create_vpc</title>
<path fill="none" stroke="#000000" d="M1127.6897,-143.8314C1153.3729,-133.4426 1185.6086,-120.4035 1211.9211,-109.7602"/>
<polygon fill="#000000" stroke="#000000" points="1213.3662,-112.9513 1221.3241,-105.9568 1210.7413,-106.462 1213.3662,-112.9513"/>
</g>
<!-- [root] var.use_ipv6 -->
<g id="node25" class="node">
<title>[root] var.use_ipv6</title>
<ellipse fill="none" stroke="#000000" cx="910.7728" cy="-90" rx="77.3089" ry="18"/>
<text text-anchor="middle" x="910.7728" y="-85.8" font-family="Times,serif" font-size="14.00" fill="#000000">[root] var.use_ipv6</text>
</g>
<!-- [root] aws_vpc.new&#45;vpc&#45;&gt;[root] var.use_ipv6 -->
<g id="edge24" class="edge">
<title>[root] aws_vpc.new&#45;vpc&#45;&gt;[root] var.use_ipv6</title>
<path fill="none" stroke="#000000" d="M1039.37,-143.8314C1014.5731,-133.4513 983.4551,-120.4251 958.0412,-109.7868"/>
<polygon fill="#000000" stroke="#000000" points="959.1813,-106.4698 948.6054,-105.8369 956.4783,-112.9269 959.1813,-106.4698"/>
</g>
<!-- [root] var.vpc_cidr -->
<g id="node26" class="node">
<title>[root] var.vpc_cidr</title>
<ellipse fill="none" stroke="#000000" cx="1082.7728" cy="-90" rx="76.3226" ry="18"/>
<text text-anchor="middle" x="1082.7728" y="-85.8" font-family="Times,serif" font-size="14.00" fill="#000000">[root] var.vpc_cidr</text>
</g>
<!-- [root] aws_vpc.new&#45;vpc&#45;&gt;[root] var.vpc_cidr -->
<g id="edge25" class="edge">
<title>[root] aws_vpc.new&#45;vpc&#45;&gt;[root] var.vpc_cidr</title>
<path fill="none" stroke="#000000" d="M1082.7728,-143.8314C1082.7728,-136.131 1082.7728,-126.9743 1082.7728,-118.4166"/>
<polygon fill="#000000" stroke="#000000" points="1086.2729,-118.4132 1082.7728,-108.4133 1079.2729,-118.4133 1086.2729,-118.4132"/>
</g>
<!-- [root] data.aws_internet_gateway.igw&#45;&gt;[root] data.aws_vpc.vpc -->
<g id="edge26" class="edge">
<title>[root] data.aws_internet_gateway.igw&#45;&gt;[root] data.aws_vpc.vpc</title>
<path fill="none" stroke="#000000" d="M1410.9243,-289.5603C1407.8379,-289.0337 1404.7812,-288.5125 1401.7728,-288 1315.0484,-273.2262 1215.0383,-256.3174 1150.4599,-245.4159"/>
<polygon fill="#000000" stroke="#000000" points="1150.8502,-241.9323 1140.4071,-243.7191 1149.6851,-248.8347 1150.8502,-241.9323"/>
</g>
<!-- [root] data.aws_route_table.rt&#45;&gt;[root] aws_route_table.rt&#45;ipv4only -->
<g id="edge27" class="edge">
<title>[root] data.aws_route_table.rt&#45;&gt;[root] aws_route_table.rt&#45;ipv4only</title>
<path fill="none" stroke="#000000" d="M1477.7728,-431.8314C1477.7728,-424.131 1477.7728,-414.9743 1477.7728,-406.4166"/>
<polygon fill="#000000" stroke="#000000" points="1481.2729,-406.4132 1477.7728,-396.4133 1474.2729,-406.4133 1481.2729,-406.4132"/>
</g>
<!-- [root] data.aws_route_table.rt&#45;&gt;[root] aws_route_table.rt&#45;ipv6 -->
<g id="edge28" class="edge">
<title>[root] data.aws_route_table.rt&#45;&gt;[root] aws_route_table.rt&#45;ipv6</title>
<path fill="none" stroke="#000000" d="M1523.1944,-431.8314C1547.4823,-422.1162 1577.565,-410.0831 1603.1248,-399.8592"/>
<polygon fill="#000000" stroke="#000000" points="1604.693,-403.0016 1612.6778,-396.038 1602.0932,-396.5023 1604.693,-403.0016"/>
</g>
<!-- [root] data.aws_subnet.subnet&#45;&gt;[root] aws_subnet.public&#45;subnet -->
<g id="edge29" class="edge">
<title>[root] data.aws_subnet.subnet&#45;&gt;[root] aws_subnet.public&#45;subnet</title>
<path fill="none" stroke="#000000" d="M355.7728,-359.8314C355.7728,-352.131 355.7728,-342.9743 355.7728,-334.4166"/>
<polygon fill="#000000" stroke="#000000" points="359.2729,-334.4132 355.7728,-324.4133 352.2729,-334.4133 359.2729,-334.4132"/>
</g>
<!-- [root] var.subnet_id -->
<g id="node27" class="node">
<title>[root] var.subnet_id</title>
<ellipse fill="none" stroke="#000000" cx="533.7728" cy="-306" rx="79.723" ry="18"/>
<text text-anchor="middle" x="533.7728" y="-301.8" font-family="Times,serif" font-size="14.00" fill="#000000">[root] var.subnet_id</text>
</g>
<!-- [root] data.aws_subnet.subnet&#45;&gt;[root] var.subnet_id -->
<g id="edge30" class="edge">
<title>[root] data.aws_subnet.subnet&#45;&gt;[root] var.subnet_id</title>
<path fill="none" stroke="#000000" d="M400.6897,-359.8314C426.4647,-349.4055 458.839,-336.3103 485.2028,-325.6463"/>
<polygon fill="#000000" stroke="#000000" points="486.6626,-328.8314 494.6205,-321.8369 484.0377,-322.3421 486.6626,-328.8314"/>
</g>
<!-- [root] data.aws_vpc.vpc&#45;&gt;[root] aws_vpc.new&#45;vpc -->
<g id="edge31" class="edge">
<title>[root] data.aws_vpc.vpc&#45;&gt;[root] aws_vpc.new&#45;vpc</title>
<path fill="none" stroke="#000000" d="M1082.7728,-215.8314C1082.7728,-208.131 1082.7728,-198.9743 1082.7728,-190.4166"/>
<polygon fill="#000000" stroke="#000000" points="1086.2729,-190.4132 1082.7728,-180.4133 1079.2729,-190.4133 1086.2729,-190.4132"/>
</g>
<!-- [root] var.vpc_id -->
<g id="node28" class="node">
<title>[root] var.vpc_id</title>
<ellipse fill="none" stroke="#000000" cx="936.7728" cy="-162" rx="69.5823" ry="18"/>
<text text-anchor="middle" x="936.7728" y="-157.8" font-family="Times,serif" font-size="14.00" fill="#000000">[root] var.vpc_id</text>
</g>
<!-- [root] data.aws_vpc.vpc&#45;&gt;[root] var.vpc_id -->
<g id="edge32" class="edge">
<title>[root] data.aws_vpc.vpc&#45;&gt;[root] var.vpc_id</title>
<path fill="none" stroke="#000000" d="M1045.9308,-215.8314C1025.3268,-205.6705 999.5814,-192.9741 978.269,-182.4639"/>
<polygon fill="#000000" stroke="#000000" points="979.6464,-179.2407 969.1296,-177.9568 976.5503,-185.5188 979.6464,-179.2407"/>
</g>
<!-- [root] var.aws_profile -->
<g id="node32" class="node">
<title>[root] var.aws_profile</title>
<ellipse fill="none" stroke="#000000" cx="295.7728" cy="-18" rx="86.9722" ry="18"/>
<text text-anchor="middle" x="295.7728" y="-13.8" font-family="Times,serif" font-size="14.00" fill="#000000">[root] var.aws_profile</text>
</g>
<!-- [root] provider.aws&#45;&gt;[root] var.aws_profile -->
<g id="edge41" class="edge">
<title>[root] provider.aws&#45;&gt;[root] var.aws_profile</title>
<path fill="none" stroke="#000000" d="M372.4559,-76.1177C359.5358,-66.3256 341.9127,-52.9692 326.8188,-41.5296"/>
<polygon fill="#000000" stroke="#000000" points="328.8232,-38.6571 318.7394,-35.4062 324.595,-44.2359 328.8232,-38.6571"/>
</g>
<!-- [root] var.aws_region -->
<g id="node33" class="node">
<title>[root] var.aws_region</title>
<ellipse fill="none" stroke="#000000" cx="486.7728" cy="-18" rx="86.4791" ry="18"/>
<text text-anchor="middle" x="486.7728" y="-13.8" font-family="Times,serif" font-size="14.00" fill="#000000">[root] var.aws_region</text>
</g>
<!-- [root] provider.aws&#45;&gt;[root] var.aws_region -->
<g id="edge42" class="edge">
<title>[root] provider.aws&#45;&gt;[root] var.aws_region</title>
<path fill="none" stroke="#000000" d="M409.2826,-76.1177C422.3386,-66.3256 440.1472,-52.9692 455.4001,-41.5296"/>
<polygon fill="#000000" stroke="#000000" points="457.6645,-44.2063 463.5645,-35.4062 453.4645,-38.6063 457.6645,-44.2063"/>
</g>
<!-- [root] local.key_pair_name&#45;&gt;[root] aws_key_pair.ssh_key_pair -->
<g id="edge33" class="edge">
<title>[root] local.key_pair_name&#45;&gt;[root] aws_key_pair.ssh_key_pair</title>
<path fill="none" stroke="#000000" d="M119.7728,-359.8314C119.7728,-352.131 119.7728,-342.9743 119.7728,-334.4166"/>
<polygon fill="#000000" stroke="#000000" points="123.2729,-334.4132 119.7728,-324.4133 116.2729,-334.4133 123.2729,-334.4132"/>
</g>
<!-- [root] meta.count&#45;boundary (count boundary fixup) -->
<g id="node29" class="node">
<title>[root] meta.count&#45;boundary (count boundary fixup)</title>
<ellipse fill="none" stroke="#000000" cx="999.7728" cy="-594" rx="191.6931" ry="18"/>
<text text-anchor="middle" x="999.7728" y="-589.8" font-family="Times,serif" font-size="14.00" fill="#000000">[root] meta.count&#45;boundary (count boundary fixup)</text>
</g>
<!-- [root] meta.count&#45;boundary (count boundary fixup)&#45;&gt;[root] aws_internet_gateway.igw -->
<g id="edge34" class="edge">
<title>[root] meta.count&#45;boundary (count boundary fixup)&#45;&gt;[root] aws_internet_gateway.igw</title>
<path fill="none" stroke="#000000" d="M1012.8946,-575.8314C1018.8227,-567.6232 1025.9457,-557.7606 1032.4662,-548.7323"/>
<polygon fill="#000000" stroke="#000000" points="1035.4568,-550.5693 1038.4743,-540.4133 1029.782,-546.4708 1035.4568,-550.5693"/>
</g>
<!-- [root] meta.count&#45;boundary (count boundary fixup)&#45;&gt;[root] aws_route_table_association.rtassoc -->
<g id="edge35" class="edge">
<title>[root] meta.count&#45;boundary (count boundary fixup)&#45;&gt;[root] aws_route_table_association.rtassoc</title>
<path fill="none" stroke="#000000" d="M1061.8632,-576.937C1099.1097,-566.7013 1146.7461,-553.6104 1186.1745,-542.7751"/>
<polygon fill="#000000" stroke="#000000" points="1187.2955,-546.0969 1196.0105,-540.0721 1185.4405,-539.3471 1187.2955,-546.0969"/>
</g>
<!-- [root] output.public_ip -->
<g id="node30" class="node">
<title>[root] output.public_ip</title>
<ellipse fill="none" stroke="#000000" cx="860.7728" cy="-522" rx="90.8395" ry="18"/>
<text text-anchor="middle" x="860.7728" y="-517.8" font-family="Times,serif" font-size="14.00" fill="#000000">[root] output.public_ip</text>
</g>
<!-- [root] meta.count&#45;boundary (count boundary fixup)&#45;&gt;[root] output.public_ip -->
<g id="edge36" class="edge">
<title>[root] meta.count&#45;boundary (count boundary fixup)&#45;&gt;[root] output.public_ip</title>
<path fill="none" stroke="#000000" d="M965.4133,-576.2022C946.3108,-566.3075 922.402,-553.923 902.262,-543.4908"/>
<polygon fill="#000000" stroke="#000000" points="903.7939,-540.3426 893.3045,-538.851 900.5742,-546.5583 903.7939,-540.3426"/>
</g>
<!-- [root] output.public_ip&#45;&gt;[root] aws_instance.kali_machine -->
<g id="edge37" class="edge">
<title>[root] output.public_ip&#45;&gt;[root] aws_instance.kali_machine</title>
<path fill="none" stroke="#000000" d="M860.7728,-503.8314C860.7728,-496.131 860.7728,-486.9743 860.7728,-478.4166"/>
<polygon fill="#000000" stroke="#000000" points="864.2729,-478.4132 860.7728,-468.4133 857.2729,-478.4133 864.2729,-478.4132"/>
</g>
<!-- [root] provider.aws (close) -->
<g id="node31" class="node">
<title>[root] provider.aws (close)</title>
<ellipse fill="none" stroke="#000000" cx="1313.7728" cy="-594" rx="104.3276" ry="18"/>
<text text-anchor="middle" x="1313.7728" y="-589.8" font-family="Times,serif" font-size="14.00" fill="#000000">[root] provider.aws (close)</text>
</g>
<!-- [root] provider.aws (close)&#45;&gt;[root] aws_instance.kali_machine -->
<g id="edge38" class="edge">
<title>[root] provider.aws (close)&#45;&gt;[root] aws_instance.kali_machine</title>
<path fill="none" stroke="#000000" d="M1342.2924,-576.3338C1369.0573,-557.6212 1402.0332,-527.5825 1380.7728,-504 1352.8968,-473.0793 1097.8852,-458.743 955.626,-453.1015"/>
<polygon fill="#000000" stroke="#000000" points="955.7116,-449.6023 945.5829,-452.7102 955.439,-456.597 955.7116,-449.6023"/>
</g>
<!-- [root] provider.aws (close)&#45;&gt;[root] aws_internet_gateway.igw -->
<g id="edge39" class="edge">
<title>[root] provider.aws (close)&#45;&gt;[root] aws_internet_gateway.igw</title>
<path fill="none" stroke="#000000" d="M1258.2094,-578.7307C1220.1064,-568.2596 1169.0871,-554.239 1127.3027,-542.7563"/>
<polygon fill="#000000" stroke="#000000" points="1128.0127,-539.3217 1117.4427,-540.0467 1126.1578,-546.0715 1128.0127,-539.3217"/>
</g>
<!-- [root] provider.aws (close)&#45;&gt;[root] aws_route_table_association.rtassoc -->
<g id="edge40" class="edge">
<title>[root] provider.aws (close)&#45;&gt;[root] aws_route_table_association.rtassoc</title>
<path fill="none" stroke="#000000" d="M1300.651,-575.8314C1294.7229,-567.6232 1287.5999,-557.7606 1281.0795,-548.7323"/>
<polygon fill="#000000" stroke="#000000" points="1283.7636,-546.4708 1275.0713,-540.4133 1278.0888,-550.5693 1283.7636,-546.4708"/>
</g>
<!-- [root] root -->
<g id="node34" class="node">
<title>[root] root</title>
<ellipse fill="none" stroke="#000000" cx="1156.7728" cy="-666" rx="46.8976" ry="18"/>
<text text-anchor="middle" x="1156.7728" y="-661.8" font-family="Times,serif" font-size="14.00" fill="#000000">[root] root</text>
</g>
<!-- [root] root&#45;&gt;[root] meta.count&#45;boundary (count boundary fixup) -->
<g id="edge43" class="edge">
<title>[root] root&#45;&gt;[root] meta.count&#45;boundary (count boundary fixup)</title>
<path fill="none" stroke="#000000" d="M1126.5016,-652.1177C1104.1221,-641.8544 1073.204,-627.6754 1047.5095,-615.892"/>
<polygon fill="#000000" stroke="#000000" points="1048.8537,-612.658 1038.305,-611.6708 1045.9357,-619.0208 1048.8537,-612.658"/>
</g>
<!-- [root] root&#45;&gt;[root] provider.aws (close) -->
<g id="edge44" class="edge">
<title>[root] root&#45;&gt;[root] provider.aws (close)</title>
<path fill="none" stroke="#000000" d="M1187.044,-652.1177C1209.8997,-641.6361 1241.6612,-627.0703 1267.669,-615.1432"/>
<polygon fill="#000000" stroke="#000000" points="1269.3326,-618.2308 1276.9633,-610.8808 1266.4145,-611.868 1269.3326,-618.2308"/>
</g>
</g>
</svg>
