<?xml version="1.0" encoding="UTF-8" standalone="no"?>
<!DOCTYPE svg PUBLIC "-//W3C//DTD SVG 1.1//EN"
 "http://www.w3.org/Graphics/SVG/1.1/DTD/svg11.dtd">
<!-- Generated by graphviz version 2.40.1 (20161225.0304)
 -->
<!-- Title: %3 Pages: 1 -->
<svg width="1688pt" height="692pt"
 viewBox="0.00 0.00 1688.46 692.00" xmlns="http://www.w3.org/2000/svg" xmlns:xlink="http://www.w3.org/1999/xlink">
<g id="graph0" class="graph" transform="scale(1 1) rotate(0) translate(4 688)">
<title>%3</title>
<polygon fill="#ffffff" stroke="transparent" points="-4,4 -4,-688 1684.4619,-688 1684.4619,4 -4,4"/>
<!-- [root] aws_instance.kali_machine -->
<g id="node1" class="node">
<title>[root] aws_instance.kali_machine</title>
<polygon fill="none" stroke="#000000" points="918.2306,-468 749.1181,-468 749.1181,-432 918.2306,-432 918.2306,-468"/>
<text text-anchor="middle" x="833.6743" y="-445.8" font-family="Times,serif" font-size="14.00" fill="#000000">aws_instance.kali_machine</text>
</g>
<!-- [root] aws_security_group.sg&#45;ipv4&#45;only -->
<g id="node7" class="node">
<title>[root] aws_security_group.sg&#45;ipv4&#45;only</title>
<polygon fill="none" stroke="#000000" points="563.4781,-396 359.8705,-396 359.8705,-360 563.4781,-360 563.4781,-396"/>
<text text-anchor="middle" x="461.6743" y="-373.8" font-family="Times,serif" font-size="14.00" fill="#000000">aws_security_group.sg&#45;ipv4&#45;only</text>
</g>
<!-- [root] aws_instance.kali_machine&#45;&gt;[root] aws_security_group.sg&#45;ipv4&#45;only -->
<g id="edge1" class="edge">
<title>[root] aws_instance.kali_machine&#45;&gt;[root] aws_security_group.sg&#45;ipv4&#45;only</title>
<path fill="none" stroke="#000000" d="M748.7963,-433.572C694.1658,-422.9983 622.8137,-409.1883 564.9067,-397.9805"/>
<polygon fill="#000000" stroke="#000000" points="565.4804,-394.5266 554.9975,-396.0626 564.1502,-401.3991 565.4804,-394.5266"/>
</g>
<!-- [root] aws_security_group.sg&#45;ipv6 -->
<g id="node8" class="node">
<title>[root] aws_security_group.sg&#45;ipv6</title>
<polygon fill="none" stroke="#000000" points="662.9265,-324 488.4222,-324 488.4222,-288 662.9265,-288 662.9265,-324"/>
<text text-anchor="middle" x="575.6743" y="-301.8" font-family="Times,serif" font-size="14.00" fill="#000000">aws_security_group.sg&#45;ipv6</text>
</g>
<!-- [root] aws_instance.kali_machine&#45;&gt;[root] aws_security_group.sg&#45;ipv6 -->
<g id="edge2" class="edge">
<title>[root] aws_instance.kali_machine&#45;&gt;[root] aws_security_group.sg&#45;ipv6</title>
<path fill="none" stroke="#000000" d="M748.9147,-436.5562C715.6992,-428.5036 678.4887,-415.8185 648.6743,-396 624.4101,-379.8709 604.237,-353.1885 591.2915,-333.0545"/>
<polygon fill="#000000" stroke="#000000" points="594.1165,-330.9695 585.8633,-324.326 588.1722,-334.6662 594.1165,-330.9695"/>
</g>
<!-- [root] data.aws_subnet.subnet -->
<g id="node11" class="node">
<title>[root] data.aws_subnet.subnet</title>
<polygon fill="none" stroke="#000000" points="997.8678,-396 849.4808,-396 849.4808,-360 997.8678,-360 997.8678,-396"/>
<text text-anchor="middle" x="923.6743" y="-373.8" font-family="Times,serif" font-size="14.00" fill="#000000">data.aws_subnet.subnet</text>
</g>
<!-- [root] aws_instance.kali_machine&#45;&gt;[root] data.aws_subnet.subnet -->
<g id="edge3" class="edge">
<title>[root] aws_instance.kali_machine&#45;&gt;[root] data.aws_subnet.subnet</title>
<path fill="none" stroke="#000000" d="M856.3851,-431.8314C867.4703,-422.9632 880.9697,-412.1637 892.9595,-402.5718"/>
<polygon fill="#000000" stroke="#000000" points="895.3485,-405.1429 900.9708,-396.1628 890.9756,-399.6768 895.3485,-405.1429"/>
</g>
<!-- [root] local.kali&#45;userdata -->
<g id="node14" class="node">
<title>[root] local.kali&#45;userdata</title>
<ellipse fill="none" stroke="#000000" cx="1343.6743" cy="-378" rx="97.5362" ry="18"/>
<text text-anchor="middle" x="1343.6743" y="-373.8" font-family="Times,serif" font-size="14.00" fill="#000000">[root] local.kali&#45;userdata</text>
</g>
<!-- [root] aws_instance.kali_machine&#45;&gt;[root] local.kali&#45;userdata -->
<g id="edge4" class="edge">
<title>[root] aws_instance.kali_machine&#45;&gt;[root] local.kali&#45;userdata</title>
<path fill="none" stroke="#000000" d="M918.3126,-439.4953C999.9405,-429.1667 1126.916,-412.5808 1236.6743,-396 1244.9746,-394.7461 1253.6273,-393.3833 1262.2584,-391.9876"/>
<polygon fill="#000000" stroke="#000000" points="1263.0529,-395.4043 1272.3582,-390.3385 1261.9248,-388.4958 1263.0529,-395.4043"/>
</g>
<!-- [root] local.key_pair_name -->
<g id="node15" class="node">
<title>[root] local.key_pair_name</title>
<ellipse fill="none" stroke="#000000" cx="1121.6743" cy="-378" rx="106.2233" ry="18"/>
<text text-anchor="middle" x="1121.6743" y="-373.8" font-family="Times,serif" font-size="14.00" fill="#000000">[root] local.key_pair_name</text>
</g>
<!-- [root] aws_instance.kali_machine&#45;&gt;[root] local.key_pair_name -->
<g id="edge5" class="edge">
<title>[root] aws_instance.kali_machine&#45;&gt;[root] local.key_pair_name</title>
<path fill="none" stroke="#000000" d="M905.9771,-431.9243C950.7455,-420.7322 1007.9264,-406.437 1052.1643,-395.3775"/>
<polygon fill="#000000" stroke="#000000" points="1053.1159,-398.7474 1061.9684,-392.9265 1051.4181,-391.9564 1053.1159,-398.7474"/>
</g>
<!-- [root] var.ec2_instance_type -->
<g id="node16" class="node">
<title>[root] var.ec2_instance_type</title>
<ellipse fill="none" stroke="#000000" cx="1569.6743" cy="-378" rx="110.5756" ry="18"/>
<text text-anchor="middle" x="1569.6743" y="-373.8" font-family="Times,serif" font-size="14.00" fill="#000000">[root] var.ec2_instance_type</text>
</g>
<!-- [root] aws_instance.kali_machine&#45;&gt;[root] var.ec2_instance_type -->
<g id="edge6" class="edge">
<title>[root] aws_instance.kali_machine&#45;&gt;[root] var.ec2_instance_type</title>
<path fill="none" stroke="#000000" d="M918.4293,-444.2754C1037.5108,-435.8472 1261.0227,-418.6199 1450.6743,-396 1460.3998,-394.84 1470.5535,-393.5014 1480.6525,-392.0883"/>
<polygon fill="#000000" stroke="#000000" points="1481.3092,-395.5302 1490.7154,-390.6544 1480.3216,-388.6002 1481.3092,-395.5302"/>
</g>
<!-- [root] var.packer_ami -->
<g id="node17" class="node">
<title>[root] var.packer_ami</title>
<ellipse fill="none" stroke="#000000" cx="744.6743" cy="-378" rx="86.9376" ry="18"/>
<text text-anchor="middle" x="744.6743" y="-373.8" font-family="Times,serif" font-size="14.00" fill="#000000">[root] var.packer_ami</text>
</g>
<!-- [root] aws_instance.kali_machine&#45;&gt;[root] var.packer_ami -->
<g id="edge7" class="edge">
<title>[root] aws_instance.kali_machine&#45;&gt;[root] var.packer_ami</title>
<path fill="none" stroke="#000000" d="M811.2159,-431.8314C800.0865,-422.8278 786.4963,-411.8335 774.5058,-402.1334"/>
<polygon fill="#000000" stroke="#000000" points="776.4861,-399.2335 766.5103,-395.665 772.0834,-404.6756 776.4861,-399.2335"/>
</g>
<!-- [root] aws_internet_gateway.igw -->
<g id="node2" class="node">
<title>[root] aws_internet_gateway.igw</title>
<polygon fill="none" stroke="#000000" points="227.9382,-324 63.4105,-324 63.4105,-288 227.9382,-288 227.9382,-324"/>
<text text-anchor="middle" x="145.6743" y="-301.8" font-family="Times,serif" font-size="14.00" fill="#000000">aws_internet_gateway.igw</text>
</g>
<!-- [root] data.aws_vpc.vpc -->
<g id="node12" class="node">
<title>[root] data.aws_vpc.vpc</title>
<polygon fill="none" stroke="#000000" points="632.1929,-252 517.1557,-252 517.1557,-216 632.1929,-216 632.1929,-252"/>
<text text-anchor="middle" x="574.6743" y="-229.8" font-family="Times,serif" font-size="14.00" fill="#000000">data.aws_vpc.vpc</text>
</g>
<!-- [root] aws_internet_gateway.igw&#45;&gt;[root] data.aws_vpc.vpc -->
<g id="edge8" class="edge">
<title>[root] aws_internet_gateway.igw&#45;&gt;[root] data.aws_vpc.vpc</title>
<path fill="none" stroke="#000000" d="M228.4012,-289.6753C231.5305,-289.1019 234.6299,-288.5416 237.6743,-288 330.757,-271.4415 438.7231,-254.5464 506.8592,-244.1669"/>
<polygon fill="#000000" stroke="#000000" points="507.6698,-247.584 517.0302,-242.6208 506.6178,-240.6635 507.6698,-247.584"/>
</g>
<!-- [root] aws_key_pair.ssh_key_pair -->
<g id="node3" class="node">
<title>[root] aws_key_pair.ssh_key_pair</title>
<polygon fill="none" stroke="#000000" points="1208.037,-324 1037.3116,-324 1037.3116,-288 1208.037,-288 1208.037,-324"/>
<text text-anchor="middle" x="1122.6743" y="-301.8" font-family="Times,serif" font-size="14.00" fill="#000000">aws_key_pair.ssh_key_pair</text>
</g>
<!-- [root] provider.aws -->
<g id="node13" class="node">
<title>[root] provider.aws</title>
<polygon fill="none" stroke="#000000" points="958.6743,-108 880.066,-90 958.6743,-72 1037.2827,-90 958.6743,-108"/>
<text text-anchor="middle" x="958.6743" y="-85.8" font-family="Times,serif" font-size="14.00" fill="#000000">provider.aws</text>
</g>
<!-- [root] aws_key_pair.ssh_key_pair&#45;&gt;[root] provider.aws -->
<g id="edge9" class="edge">
<title>[root] aws_key_pair.ssh_key_pair&#45;&gt;[root] provider.aws</title>
<path fill="none" stroke="#000000" d="M1054.5296,-287.8829C1035.0906,-279.7466 1015.4676,-268.2027 1001.6743,-252 969.11,-213.7472 960.9112,-153.4129 959.0246,-118.1764"/>
<polygon fill="#000000" stroke="#000000" points="962.5185,-117.9511 958.6217,-108.099 955.5241,-118.2308 962.5185,-117.9511"/>
</g>
<!-- [root] var.public_key_path -->
<g id="node18" class="node">
<title>[root] var.public_key_path</title>
<ellipse fill="none" stroke="#000000" cx="1114.6743" cy="-234" rx="104.3283" ry="18"/>
<text text-anchor="middle" x="1114.6743" y="-229.8" font-family="Times,serif" font-size="14.00" fill="#000000">[root] var.public_key_path</text>
</g>
<!-- [root] aws_key_pair.ssh_key_pair&#45;&gt;[root] var.public_key_path -->
<g id="edge10" class="edge">
<title>[root] aws_key_pair.ssh_key_pair&#45;&gt;[root] var.public_key_path</title>
<path fill="none" stroke="#000000" d="M1120.6556,-287.8314C1119.8,-280.131 1118.7826,-270.9743 1117.8317,-262.4166"/>
<polygon fill="#000000" stroke="#000000" points="1121.3032,-261.9656 1116.7202,-252.4133 1114.346,-262.7386 1121.3032,-261.9656"/>
</g>
<!-- [root] var.ssh_key_pair_name -->
<g id="node19" class="node">
<title>[root] var.ssh_key_pair_name</title>
<ellipse fill="none" stroke="#000000" cx="1352.6743" cy="-234" rx="115.9209" ry="18"/>
<text text-anchor="middle" x="1352.6743" y="-229.8" font-family="Times,serif" font-size="14.00" fill="#000000">[root] var.ssh_key_pair_name</text>
</g>
<!-- [root] aws_key_pair.ssh_key_pair&#45;&gt;[root] var.ssh_key_pair_name -->
<g id="edge11" class="edge">
<title>[root] aws_key_pair.ssh_key_pair&#45;&gt;[root] var.ssh_key_pair_name</title>
<path fill="none" stroke="#000000" d="M1180.4162,-287.9243C1214.0853,-277.3844 1256.5457,-264.0924 1290.8856,-253.3425"/>
<polygon fill="#000000" stroke="#000000" points="1292.3036,-256.5662 1300.8013,-250.2385 1290.2123,-249.8859 1292.3036,-256.5662"/>
</g>
<!-- [root] aws_route_table.rt&#45;ipv4only -->
<g id="node4" class="node">
<title>[root] aws_route_table.rt&#45;ipv4only</title>
<polygon fill="none" stroke="#000000" points="341.9128,-396 167.4359,-396 167.4359,-360 341.9128,-360 341.9128,-396"/>
<text text-anchor="middle" x="254.6743" y="-373.8" font-family="Times,serif" font-size="14.00" fill="#000000">aws_route_table.rt&#45;ipv4only</text>
</g>
<!-- [root] aws_route_table.rt&#45;ipv4only&#45;&gt;[root] aws_internet_gateway.igw -->
<g id="edge12" class="edge">
<title>[root] aws_route_table.rt&#45;ipv4only&#45;&gt;[root] aws_internet_gateway.igw</title>
<path fill="none" stroke="#000000" d="M227.169,-359.8314C213.3563,-350.7074 196.4487,-339.539 181.6214,-329.7449"/>
<polygon fill="#000000" stroke="#000000" points="183.4439,-326.7541 173.1708,-324.1628 179.5857,-332.5949 183.4439,-326.7541"/>
</g>
<!-- [root] var.use_ipv4only -->
<g id="node20" class="node">
<title>[root] var.use_ipv4only</title>
<ellipse fill="none" stroke="#000000" cx="339.6743" cy="-306" rx="93.2533" ry="18"/>
<text text-anchor="middle" x="339.6743" y="-301.8" font-family="Times,serif" font-size="14.00" fill="#000000">[root] var.use_ipv4only</text>
</g>
<!-- [root] aws_route_table.rt&#45;ipv4only&#45;&gt;[root] var.use_ipv4only -->
<g id="edge13" class="edge">
<title>[root] aws_route_table.rt&#45;ipv4only&#45;&gt;[root] var.use_ipv4only</title>
<path fill="none" stroke="#000000" d="M276.1234,-359.8314C286.7526,-350.8278 299.732,-339.8335 311.1835,-330.1334"/>
<polygon fill="#000000" stroke="#000000" points="313.4515,-332.7992 318.8198,-323.665 308.9271,-327.4578 313.4515,-332.7992"/>
</g>
<!-- [root] aws_route_table.rt&#45;ipv6 -->
<g id="node5" class="node">
<title>[root] aws_route_table.rt&#45;ipv6</title>
<polygon fill="none" stroke="#000000" points="149.5234,-396 -.1747,-396 -.1747,-360 149.5234,-360 149.5234,-396"/>
<text text-anchor="middle" x="74.6743" y="-373.8" font-family="Times,serif" font-size="14.00" fill="#000000">aws_route_table.rt&#45;ipv6</text>
</g>
<!-- [root] aws_route_table.rt&#45;ipv6&#45;&gt;[root] aws_internet_gateway.igw -->
<g id="edge14" class="edge">
<title>[root] aws_route_table.rt&#45;ipv6&#45;&gt;[root] aws_internet_gateway.igw</title>
<path fill="none" stroke="#000000" d="M92.5906,-359.8314C101.0185,-351.2848 111.2153,-340.9443 120.4103,-331.6198"/>
<polygon fill="#000000" stroke="#000000" points="122.9874,-333.9912 127.5168,-324.4133 118.0032,-329.0761 122.9874,-333.9912"/>
</g>
<!-- [root] aws_route_table_association.rtassoc -->
<g id="node6" class="node">
<title>[root] aws_route_table_association.rtassoc</title>
<polygon fill="none" stroke="#000000" points="595.5027,-468 375.8459,-468 375.8459,-432 595.5027,-432 595.5027,-468"/>
<text text-anchor="middle" x="485.6743" y="-445.8" font-family="Times,serif" font-size="14.00" fill="#000000">aws_route_table_association.rtassoc</text>
</g>
<!-- [root] aws_route_table_association.rtassoc&#45;&gt;[root] aws_route_table.rt&#45;ipv4only -->
<g id="edge15" class="edge">
<title>[root] aws_route_table_association.rtassoc&#45;&gt;[root] aws_route_table.rt&#45;ipv4only</title>
<path fill="none" stroke="#000000" d="M427.6814,-431.9243C395.6905,-421.9531 355.7972,-409.5188 322.383,-399.104"/>
<polygon fill="#000000" stroke="#000000" points="323.2796,-395.7174 312.6911,-396.0831 321.1966,-402.4004 323.2796,-395.7174"/>
</g>
<!-- [root] aws_route_table_association.rtassoc&#45;&gt;[root] aws_route_table.rt&#45;ipv6 -->
<g id="edge16" class="edge">
<title>[root] aws_route_table_association.rtassoc&#45;&gt;[root] aws_route_table.rt&#45;ipv6</title>
<path fill="none" stroke="#000000" d="M375.6987,-433.1717C314.754,-423.5269 237.4002,-410.7637 159.713,-396.1553"/>
<polygon fill="#000000" stroke="#000000" points="160.2205,-392.6893 149.7444,-394.2709 158.9203,-399.5675 160.2205,-392.6893"/>
</g>
<!-- [root] aws_subnet.public&#45;subnet -->
<g id="node9" class="node">
<title>[root] aws_subnet.public&#45;subnet</title>
<polygon fill="none" stroke="#000000" points="842.2056,-324 681.1431,-324 681.1431,-288 842.2056,-288 842.2056,-324"/>
<text text-anchor="middle" x="761.6743" y="-301.8" font-family="Times,serif" font-size="14.00" fill="#000000">aws_subnet.public&#45;subnet</text>
</g>
<!-- [root] aws_route_table_association.rtassoc&#45;&gt;[root] aws_subnet.public&#45;subnet -->
<g id="edge17" class="edge">
<title>[root] aws_route_table_association.rtassoc&#45;&gt;[root] aws_subnet.public&#45;subnet</title>
<path fill="none" stroke="#000000" d="M517.2356,-431.8528C549.8561,-413.2674 602.395,-383.8084 648.6743,-360 669.6217,-349.2236 693.0778,-337.8968 713.1675,-328.4156"/>
<polygon fill="#000000" stroke="#000000" points="714.8743,-331.4807 722.4357,-324.0593 711.8967,-325.1456 714.8743,-331.4807"/>
</g>
<!-- [root] aws_security_group.sg&#45;ipv4&#45;only&#45;&gt;[root] data.aws_vpc.vpc -->
<g id="edge18" class="edge">
<title>[root] aws_security_group.sg&#45;ipv4&#45;only&#45;&gt;[root] data.aws_vpc.vpc</title>
<path fill="none" stroke="#000000" d="M461.048,-359.691C461.2874,-340.1609 464.3703,-309.1824 479.6743,-288 488.9704,-275.1332 502.3383,-264.9086 516.1232,-256.9735"/>
<polygon fill="#000000" stroke="#000000" points="518.0576,-259.9072 525.2035,-252.085 514.7393,-253.7436 518.0576,-259.9072"/>
</g>
<!-- [root] aws_security_group.sg&#45;ipv4&#45;only&#45;&gt;[root] var.use_ipv4only -->
<g id="edge19" class="edge">
<title>[root] aws_security_group.sg&#45;ipv4&#45;only&#45;&gt;[root] var.use_ipv4only</title>
<path fill="none" stroke="#000000" d="M430.8886,-359.8314C414.6586,-350.253 394.611,-338.4217 377.4475,-328.2923"/>
<polygon fill="#000000" stroke="#000000" points="379.1614,-325.2398 368.7704,-323.1715 375.6036,-331.2683 379.1614,-325.2398"/>
</g>
<!-- [root] aws_security_group.sg&#45;ipv6&#45;&gt;[root] data.aws_vpc.vpc -->
<g id="edge20" class="edge">
<title>[root] aws_security_group.sg&#45;ipv6&#45;&gt;[root] data.aws_vpc.vpc</title>
<path fill="none" stroke="#000000" d="M575.422,-287.8314C575.315,-280.131 575.1878,-270.9743 575.069,-262.4166"/>
<polygon fill="#000000" stroke="#000000" points="578.5687,-262.3637 574.9301,-252.4133 571.5694,-262.4609 578.5687,-262.3637"/>
</g>
<!-- [root] aws_subnet.public&#45;subnet&#45;&gt;[root] data.aws_vpc.vpc -->
<g id="edge21" class="edge">
<title>[root] aws_subnet.public&#45;subnet&#45;&gt;[root] data.aws_vpc.vpc</title>
<path fill="none" stroke="#000000" d="M714.4863,-287.8314C689.1427,-278.0734 657.7258,-265.977 631.0969,-255.7242"/>
<polygon fill="#000000" stroke="#000000" points="632.1128,-252.3649 621.523,-252.038 629.5975,-258.8974 632.1128,-252.3649"/>
</g>
<!-- [root] var.subnet_cidr_block -->
<g id="node21" class="node">
<title>[root] var.subnet_cidr_block</title>
<ellipse fill="none" stroke="#000000" cx="761.6743" cy="-234" rx="110.6015" ry="18"/>
<text text-anchor="middle" x="761.6743" y="-229.8" font-family="Times,serif" font-size="14.00" fill="#000000">[root] var.subnet_cidr_block</text>
</g>
<!-- [root] aws_subnet.public&#45;subnet&#45;&gt;[root] var.subnet_cidr_block -->
<g id="edge22" class="edge">
<title>[root] aws_subnet.public&#45;subnet&#45;&gt;[root] var.subnet_cidr_block</title>
<path fill="none" stroke="#000000" d="M761.6743,-287.8314C761.6743,-280.131 761.6743,-270.9743 761.6743,-262.4166"/>
<polygon fill="#000000" stroke="#000000" points="765.1744,-262.4132 761.6743,-252.4133 758.1744,-262.4133 765.1744,-262.4132"/>
</g>
<!-- [root] aws_vpc.new&#45;vpc -->
<g id="node10" class="node">
<title>[root] aws_vpc.new&#45;vpc</title>
<polygon fill="none" stroke="#000000" points="632.8613,-180 516.4874,-180 516.4874,-144 632.8613,-144 632.8613,-180"/>
<text text-anchor="middle" x="574.6743" y="-157.8" font-family="Times,serif" font-size="14.00" fill="#000000">aws_vpc.new&#45;vpc</text>
</g>
<!-- [root] aws_vpc.new&#45;vpc&#45;&gt;[root] provider.aws -->
<g id="edge23" class="edge">
<title>[root] aws_vpc.new&#45;vpc&#45;&gt;[root] provider.aws</title>
<path fill="none" stroke="#000000" d="M633.0608,-145.9686C635.9674,-145.279 638.8506,-144.6184 641.6743,-144 690.2779,-133.356 824.8807,-111.355 902.1609,-98.9725"/>
<polygon fill="#000000" stroke="#000000" points="902.889,-102.4006 912.2105,-97.3647 901.7831,-95.4885 902.889,-102.4006"/>
</g>
<!-- [root] var.create_vpc -->
<g id="node22" class="node">
<title>[root] var.create_vpc</title>
<ellipse fill="none" stroke="#000000" cx="574.6743" cy="-90" rx="83.5306" ry="18"/>
<text text-anchor="middle" x="574.6743" y="-85.8" font-family="Times,serif" font-size="14.00" fill="#000000">[root] var.create_vpc</text>
</g>
<!-- [root] aws_vpc.new&#45;vpc&#45;&gt;[root] var.create_vpc -->
<g id="edge24" class="edge">
<title>[root] aws_vpc.new&#45;vpc&#45;&gt;[root] var.create_vpc</title>
<path fill="none" stroke="#000000" d="M574.6743,-143.8314C574.6743,-136.131 574.6743,-126.9743 574.6743,-118.4166"/>
<polygon fill="#000000" stroke="#000000" points="578.1744,-118.4132 574.6743,-108.4133 571.1744,-118.4133 578.1744,-118.4132"/>
</g>
<!-- [root] var.use_ipv6 -->
<g id="node23" class="node">
<title>[root] var.use_ipv6</title>
<ellipse fill="none" stroke="#000000" cx="753.6743" cy="-90" rx="77.3089" ry="18"/>
<text text-anchor="middle" x="753.6743" y="-85.8" font-family="Times,serif" font-size="14.00" fill="#000000">[root] var.use_ipv6</text>
</g>
<!-- [root] aws_vpc.new&#45;vpc&#45;&gt;[root] var.use_ipv6 -->
<g id="edge25" class="edge">
<title>[root] aws_vpc.new&#45;vpc&#45;&gt;[root] var.use_ipv6</title>
<path fill="none" stroke="#000000" d="M619.8436,-143.8314C645.9478,-133.3313 678.7833,-120.1238 705.3966,-109.419"/>
<polygon fill="#000000" stroke="#000000" points="706.9245,-112.577 714.896,-105.598 704.3123,-106.0827 706.9245,-112.577"/>
</g>
<!-- [root] var.vpc_cidr -->
<g id="node24" class="node">
<title>[root] var.vpc_cidr</title>
<ellipse fill="none" stroke="#000000" cx="396.6743" cy="-90" rx="76.3226" ry="18"/>
<text text-anchor="middle" x="396.6743" y="-85.8" font-family="Times,serif" font-size="14.00" fill="#000000">[root] var.vpc_cidr</text>
</g>
<!-- [root] aws_vpc.new&#45;vpc&#45;&gt;[root] var.vpc_cidr -->
<g id="edge26" class="edge">
<title>[root] aws_vpc.new&#45;vpc&#45;&gt;[root] var.vpc_cidr</title>
<path fill="none" stroke="#000000" d="M529.7574,-143.8314C503.799,-133.3313 471.147,-120.1238 444.6823,-109.419"/>
<polygon fill="#000000" stroke="#000000" points="445.8188,-106.1032 435.236,-105.598 443.1939,-112.5925 445.8188,-106.1032"/>
</g>
<!-- [root] data.aws_subnet.subnet&#45;&gt;[root] aws_subnet.public&#45;subnet -->
<g id="edge27" class="edge">
<title>[root] data.aws_subnet.subnet&#45;&gt;[root] aws_subnet.public&#45;subnet</title>
<path fill="none" stroke="#000000" d="M882.7949,-359.8314C861.1283,-350.2018 834.338,-338.295 811.4665,-328.1299"/>
<polygon fill="#000000" stroke="#000000" points="812.8194,-324.9011 802.2598,-324.038 809.9764,-331.2978 812.8194,-324.9011"/>
</g>
<!-- [root] var.subnet_id -->
<g id="node25" class="node">
<title>[root] var.subnet_id</title>
<ellipse fill="none" stroke="#000000" cx="939.6743" cy="-306" rx="79.723" ry="18"/>
<text text-anchor="middle" x="939.6743" y="-301.8" font-family="Times,serif" font-size="14.00" fill="#000000">[root] var.subnet_id</text>
</g>
<!-- [root] data.aws_subnet.subnet&#45;&gt;[root] var.subnet_id -->
<g id="edge28" class="edge">
<title>[root] data.aws_subnet.subnet&#45;&gt;[root] var.subnet_id</title>
<path fill="none" stroke="#000000" d="M927.7118,-359.8314C929.423,-352.131 931.4578,-342.9743 933.3595,-334.4166"/>
<polygon fill="#000000" stroke="#000000" points="936.8298,-334.9344 935.5825,-324.4133 929.9964,-333.4159 936.8298,-334.9344"/>
</g>
<!-- [root] data.aws_vpc.vpc&#45;&gt;[root] aws_vpc.new&#45;vpc -->
<g id="edge29" class="edge">
<title>[root] data.aws_vpc.vpc&#45;&gt;[root] aws_vpc.new&#45;vpc</title>
<path fill="none" stroke="#000000" d="M574.6743,-215.8314C574.6743,-208.131 574.6743,-198.9743 574.6743,-190.4166"/>
<polygon fill="#000000" stroke="#000000" points="578.1744,-190.4132 574.6743,-180.4133 571.1744,-190.4133 578.1744,-190.4132"/>
</g>
<!-- [root] var.vpc_id -->
<g id="node26" class="node">
<title>[root] var.vpc_id</title>
<ellipse fill="none" stroke="#000000" cx="720.6743" cy="-162" rx="69.5823" ry="18"/>
<text text-anchor="middle" x="720.6743" y="-157.8" font-family="Times,serif" font-size="14.00" fill="#000000">[root] var.vpc_id</text>
</g>
<!-- [root] data.aws_vpc.vpc&#45;&gt;[root] var.vpc_id -->
<g id="edge30" class="edge">
<title>[root] data.aws_vpc.vpc&#45;&gt;[root] var.vpc_id</title>
<path fill="none" stroke="#000000" d="M611.5163,-215.8314C632.1203,-205.6705 657.8657,-192.9741 679.1782,-182.4639"/>
<polygon fill="#000000" stroke="#000000" points="680.8968,-185.5188 688.3175,-177.9568 677.8007,-179.2407 680.8968,-185.5188"/>
</g>
<!-- [root] var.aws_profile -->
<g id="node30" class="node">
<title>[root] var.aws_profile</title>
<ellipse fill="none" stroke="#000000" cx="862.6743" cy="-18" rx="86.9722" ry="18"/>
<text text-anchor="middle" x="862.6743" y="-13.8" font-family="Times,serif" font-size="14.00" fill="#000000">[root] var.aws_profile</text>
</g>
<!-- [root] provider.aws&#45;&gt;[root] var.aws_profile -->
<g id="edge37" class="edge">
<title>[root] provider.aws&#45;&gt;[root] var.aws_profile</title>
<path fill="none" stroke="#000000" d="M940.1646,-76.1177C927.1085,-66.3256 909.2999,-52.9692 894.0471,-41.5296"/>
<polygon fill="#000000" stroke="#000000" points="895.9827,-38.6063 885.8826,-35.4062 891.7826,-44.2063 895.9827,-38.6063"/>
</g>
<!-- [root] var.aws_region -->
<g id="node31" class="node">
<title>[root] var.aws_region</title>
<ellipse fill="none" stroke="#000000" cx="1053.6743" cy="-18" rx="86.4791" ry="18"/>
<text text-anchor="middle" x="1053.6743" y="-13.8" font-family="Times,serif" font-size="14.00" fill="#000000">[root] var.aws_region</text>
</g>
<!-- [root] provider.aws&#45;&gt;[root] var.aws_region -->
<g id="edge38" class="edge">
<title>[root] provider.aws&#45;&gt;[root] var.aws_region</title>
<path fill="none" stroke="#000000" d="M976.9913,-76.1177C989.9113,-66.3256 1007.5344,-52.9692 1022.6284,-41.5296"/>
<polygon fill="#000000" stroke="#000000" points="1024.8521,-44.2359 1030.7078,-35.4062 1020.624,-38.6571 1024.8521,-44.2359"/>
</g>
<!-- [root] local.key_pair_name&#45;&gt;[root] aws_key_pair.ssh_key_pair -->
<g id="edge31" class="edge">
<title>[root] local.key_pair_name&#45;&gt;[root] aws_key_pair.ssh_key_pair</title>
<path fill="none" stroke="#000000" d="M1121.9267,-359.8314C1122.0336,-352.131 1122.1608,-342.9743 1122.2796,-334.4166"/>
<polygon fill="#000000" stroke="#000000" points="1125.7793,-334.4609 1122.4186,-324.4133 1118.7799,-334.3637 1125.7793,-334.4609"/>
</g>
<!-- [root] meta.count&#45;boundary (count boundary fixup) -->
<g id="node27" class="node">
<title>[root] meta.count&#45;boundary (count boundary fixup)</title>
<ellipse fill="none" stroke="#000000" cx="833.6743" cy="-594" rx="191.6931" ry="18"/>
<text text-anchor="middle" x="833.6743" y="-589.8" font-family="Times,serif" font-size="14.00" fill="#000000">[root] meta.count&#45;boundary (count boundary fixup)</text>
</g>
<!-- [root] meta.count&#45;boundary (count boundary fixup)&#45;&gt;[root] aws_route_table_association.rtassoc -->
<g id="edge32" class="edge">
<title>[root] meta.count&#45;boundary (count boundary fixup)&#45;&gt;[root] aws_route_table_association.rtassoc</title>
<path fill="none" stroke="#000000" d="M671.4598,-584.4109C601.1933,-576.9104 529.364,-563.5941 504.6743,-540 488.2331,-524.2883 484.2041,-498.2069 483.8658,-478.1545"/>
<polygon fill="#000000" stroke="#000000" points="487.3671,-478.0645 483.9904,-468.0222 480.3676,-477.9784 487.3671,-478.0645"/>
</g>
<!-- [root] output.public_ip -->
<g id="node28" class="node">
<title>[root] output.public_ip</title>
<ellipse fill="none" stroke="#000000" cx="833.6743" cy="-522" rx="90.8395" ry="18"/>
<text text-anchor="middle" x="833.6743" y="-517.8" font-family="Times,serif" font-size="14.00" fill="#000000">[root] output.public_ip</text>
</g>
<!-- [root] meta.count&#45;boundary (count boundary fixup)&#45;&gt;[root] output.public_ip -->
<g id="edge33" class="edge">
<title>[root] meta.count&#45;boundary (count boundary fixup)&#45;&gt;[root] output.public_ip</title>
<path fill="none" stroke="#000000" d="M833.6743,-575.8314C833.6743,-568.131 833.6743,-558.9743 833.6743,-550.4166"/>
<polygon fill="#000000" stroke="#000000" points="837.1744,-550.4132 833.6743,-540.4133 830.1744,-550.4133 837.1744,-550.4132"/>
</g>
<!-- [root] output.public_ip&#45;&gt;[root] aws_instance.kali_machine -->
<g id="edge34" class="edge">
<title>[root] output.public_ip&#45;&gt;[root] aws_instance.kali_machine</title>
<path fill="none" stroke="#000000" d="M833.6743,-503.8314C833.6743,-496.131 833.6743,-486.9743 833.6743,-478.4166"/>
<polygon fill="#000000" stroke="#000000" points="837.1744,-478.4132 833.6743,-468.4133 830.1744,-478.4133 837.1744,-478.4132"/>
</g>
<!-- [root] provider.aws (close) -->
<g id="node29" class="node">
<title>[root] provider.aws (close)</title>
<ellipse fill="none" stroke="#000000" cx="617.6743" cy="-522" rx="104.3276" ry="18"/>
<text text-anchor="middle" x="617.6743" y="-517.8" font-family="Times,serif" font-size="14.00" fill="#000000">[root] provider.aws (close)</text>
</g>
<!-- [root] provider.aws (close)&#45;&gt;[root] aws_instance.kali_machine -->
<g id="edge35" class="edge">
<title>[root] provider.aws (close)&#45;&gt;[root] aws_instance.kali_machine</title>
<path fill="none" stroke="#000000" d="M665.8801,-505.9314C696.5479,-495.7088 736.6087,-482.3552 769.8953,-471.2597"/>
<polygon fill="#000000" stroke="#000000" points="771.1591,-474.5278 779.5391,-468.0451 768.9455,-467.887 771.1591,-474.5278"/>
</g>
<!-- [root] provider.aws (close)&#45;&gt;[root] aws_route_table_association.rtassoc -->
<g id="edge36" class="edge">
<title>[root] provider.aws (close)&#45;&gt;[root] aws_route_table_association.rtassoc</title>
<path fill="none" stroke="#000000" d="M586.057,-504.7542C568.6218,-495.2441 546.7453,-483.3114 527.8687,-473.0151"/>
<polygon fill="#000000" stroke="#000000" points="529.3306,-469.8257 518.8756,-468.1098 525.9786,-475.971 529.3306,-469.8257"/>
</g>
<!-- [root] root -->
<g id="node32" class="node">
<title>[root] root</title>
<ellipse fill="none" stroke="#000000" cx="723.6743" cy="-666" rx="46.8976" ry="18"/>
<text text-anchor="middle" x="723.6743" y="-661.8" font-family="Times,serif" font-size="14.00" fill="#000000">[root] root</text>
</g>
<!-- [root] root&#45;&gt;[root] meta.count&#45;boundary (count boundary fixup) -->
<g id="edge39" class="edge">
<title>[root] root&#45;&gt;[root] meta.count&#45;boundary (count boundary fixup)</title>
<path fill="none" stroke="#000000" d="M747.5427,-650.3771C762.1508,-640.8154 781.1278,-628.3941 797.5498,-617.6452"/>
<polygon fill="#000000" stroke="#000000" points="799.9161,-620.2794 806.3663,-611.8744 796.0824,-614.4225 799.9161,-620.2794"/>
</g>
<!-- [root] root&#45;&gt;[root] provider.aws (close) -->
<g id="edge40" class="edge">
<title>[root] root&#45;&gt;[root] provider.aws (close)</title>
<path fill="none" stroke="#000000" d="M688.5899,-653.7555C669.0615,-645.1155 646.0592,-631.5565 632.6743,-612 620.3515,-593.9953 616.9466,-569.3122 616.4306,-550.3488"/>
<polygon fill="#000000" stroke="#000000" points="619.9304,-550.2024 616.4087,-540.21 612.9304,-550.2175 619.9304,-550.2024"/>
</g>
</g>
</svg>
